<?xml version="1.0" encoding="utf-8"?>
<!-- Generator: Adobe Illustrator 23.0.0, SVG Export Plug-In . SVG Version: 6.00 Build 0)  -->
<svg version="1.1" id="Layer_1" xmlns="http://www.w3.org/2000/svg" xmlns:xlink="http://www.w3.org/1999/xlink" x="0px" y="0px"
	 viewBox="0 0 1366 768" style="enable-background:new 0 0 1366 768;" xml:space="preserve">
<style type="text/css">
	.st0{fill:#FA9B70;}
	.st1{fill:#FA9B70;stroke:#231F20;stroke-miterlimit:10;}
	.st2{fill:#FFF2DB;}
	.st3{clip-path:url(#SVGID_2_);}
	.st4{fill:#FFBC45;}
	.st5{fill:#FFE4B5;}
	.st6{fill:#31241C;}
	.st7{fill:#C97440;}
	.st8{fill:#AB5D2D;}
	.st9{fill:#1A191F;}
	.st10{fill:#1F0E03;}
	.st11{fill:#5F7E91;}
	.st12{fill:#49687A;}
	.st13{fill:none;stroke:#1F0E03;stroke-miterlimit:10;}
	.st14{fill:#F5CDB3;}
</style>
<rect class="st0" width="1366" height="768"/>
<rect x="1366" y="763.84" class="st1" width="1366" height="768"/>
<g>
	<g>
		<path class="st2" d="M900.77,127.83c-121.71-7.64-164.89,52.39-226.75,114.49c-61.86,62.09-90.45,127.63-54.51,220.93
			c35.95,93.3,120.82,117.02,254.03,117.02c133.21,0,270.4,13,339.87-37.75c69.47-50.74,93.14-166.71-7.52-227.39
			C1146.61,279.38,1069.02,138.38,900.77,127.83z"/>
		<g>
			<defs>
				<path id="SVGID_1_" d="M900.77,127.83c-121.71-7.64-164.89,52.39-226.75,114.49c-61.86,62.09-90.45,127.63-54.51,220.93
					c35.95,93.3,120.82,117.02,254.03,117.02c133.21,0,270.4,13,339.87-37.75c69.47-50.74,93.14-166.71-7.52-227.39
					C1146.61,279.38,1069.02,138.38,900.77,127.83z"/>
			</defs>
			<clipPath id="SVGID_2_">
				<use xlink:href="#SVGID_1_"  style="overflow:visible;"/>
			</clipPath>
			<g class="st3">
				<g>
					<path class="st4" d="M705.72,560.66c-1.3-16.17-6.55-31.52-11.78-46.76c-5.17-15.06-10.98-30.95-11.24-47.06
						c-0.11-6.95,3.06-21.09,12.97-18.43c3.35,0.9,5.46,4.54,6.97,7.37c1.99,3.73,3.56,7.7,4.93,11.7
						c5.2,15.07,6.13,31.21,6.09,47.02c-0.03,11.9-0.86,23.85,0.12,35.72c0.06,0.71,1.12,0.73,1.12,0
						c-0.04-16.67,0.89-33.31,3.83-49.74c1.4-7.84,3.3-15.58,5.55-23.21c0.8-2.73,3.36-6.92,6.16-7.65
						c4.17-1.08,9.33,0.08,10.93,4.58c5.99,16.81,0.91,34.91-4.67,51.07c-2.36,6.82-4.7,13.64-7.73,20.19
						c-2.47,5.35-4.9,10.71-7.27,16.1c-0.7,1.58-1.38,3.16-2.05,4.76c-0.28,0.67,0.81,0.95,1.08,0.3
						c4.24-10.2,9.51-19.99,13.24-30.38c5.58-15.57,11.82-31.56,11.11-48.38c-0.16-3.72-0.79-7.41-1.73-11
						c-0.85-3.23-1.85-5.68-4.75-7.5c-2.04-1.28-4.66-1.37-6.97-1.09c-2.95,0.36-3.96,1.15-5.54,3.55c-0.6,0.92-2.02,2.28-2.32,3.27
						c-0.57,1.88-1.12,3.76-1.65,5.64c-1.12,3.99-2.1,8.02-3,12.07c-1.63,7.41-2.81,14.92-3.67,22.46
						c-1.32,11.6-1.7,23.29-1.67,34.96c0.37,0,0.75,0,1.12,0c-1.12-13.67,0.02-27.44-0.14-41.13c-0.18-15.49-1.89-31.04-7.44-45.6
						c-2.03-5.33-4.45-11.78-9.3-15.19c-5.02-3.53-10.6,0.35-13.34,4.72c-3.64,5.82-3.41,13.57-2.68,20.11
						c0.85,7.55,2.67,15,4.77,22.3c6.24,21.67,15.99,42.48,17.83,65.22C704.66,561.37,705.78,561.38,705.72,560.66L705.72,560.66z"
						/>
				</g>
				<g>
					<path class="st4" d="M705.62,560.48c-0.28-3.1-0.62-6.19-1.28-9.23c-0.13-0.61-1.14-0.48-1.1,0.15
						c0.19,3.11,0.63,6.18,1.12,9.25c0.11,0.71,1.19,0.41,1.08-0.3c-0.47-2.97-0.89-5.95-1.08-8.96c-0.37,0.05-0.73,0.1-1.1,0.15
						c0.64,2.95,0.97,5.93,1.24,8.94C704.57,561.19,705.69,561.2,705.62,560.48L705.62,560.48z"/>
				</g>
				<g>
					<path class="st4" d="M690.35,560.91c-4.73-12.5-14.63-21.67-23.44-31.32c-4.72-5.17-9.11-10.65-12.28-16.92
						c-3-5.95-7.08-14.88-2.99-21.17c3.53-5.44,11.27-1.03,15.11,1.56c4.91,3.31,8.78,7.74,12.5,12.29
						c10.3,12.61,18.06,27.4,22.51,43.06c1.1,3.85,1.93,7.78,2.57,11.73c0.11,0.71,1.19,0.41,1.08-0.3
						c-2.47-15.25-8.31-29.71-16.44-42.8c-6.32-10.17-14.21-21.09-24.95-26.96c-3.48-1.9-8.02-3.36-11.61-0.95
						c-4.55,3.06-3.83,9.74-2.65,14.27c3.35,12.92,12.53,22.95,21.41,32.42c7.15,7.62,14.35,15.47,18.1,25.39
						C689.52,561.87,690.6,561.58,690.35,560.91L690.35,560.91z"/>
				</g>
				<g>
					<path class="st4" d="M734.04,476.72c-7.4,11.54-6,26.26-8.27,39.25c-1.3,7.47-3.97,14.57-5.33,22.01
						c-1.44,7.86-3.02,15.68-4.89,23.46c-0.17,0.7,0.91,1,1.08,0.3c1.79-7.44,3.37-14.92,4.73-22.44c1.28-7.08,3.74-13.85,5.11-20.9
						c1.3-6.72,1.86-13.47,2.5-20.28c0.68-7.3,2.03-14.57,6.05-20.83C735.4,476.68,734.43,476.12,734.04,476.72L734.04,476.72z"/>
				</g>
				<g>
					<path class="st4" d="M692.18,459.9c0.5,8.43,3.36,16.41,5.3,24.56c2.17,9.1,3.93,18.32,5.76,27.49
						c1.78,8.93,3.38,17.9,5.3,26.81c1.98,9.19,3.56,18.51,3.61,27.93c0,0.72,1.12,0.72,1.12,0c-0.04-8.48-1.34-16.85-3.01-25.15
						c-1.85-9.24-3.69-18.48-5.52-27.72c-1.75-8.86-3.51-17.74-5.48-26.56c-2.03-9.08-5.42-18.02-5.98-27.36
						C693.26,459.18,692.14,459.17,692.18,459.9L692.18,459.9z"/>
				</g>
				<g>
					<path class="st4" d="M664.39,506.5c8.42,8.02,15.35,17.39,21.68,27.1c3.21,4.92,6.11,10.07,9.01,15.18
						c3.24,5.71,5.09,11.75,7.44,17.84c0.26,0.66,1.34,0.38,1.08-0.3c-2.12-5.5-3.7-11.09-6.54-16.29
						c-2.99-5.47-6.13-10.94-9.5-16.18c-6.48-10.09-13.67-19.85-22.38-28.14C664.66,505.21,663.87,506,664.39,506.5L664.39,506.5z"
						/>
				</g>
				<g>
					<path class="st4" d="M665.93,521.55c6.79,4.56,14.22,8.14,20.64,13.24c0.56,0.44,1.35-0.34,0.79-0.79
						c-6.5-5.16-14-8.8-20.87-13.42C665.9,520.18,665.34,521.15,665.93,521.55L665.93,521.55z"/>
				</g>
				<g>
					<path class="st4" d="M684.62,520.69c2.48,3.27,3.97,7.49,5.37,11.31c1.72,4.69,2.93,9.63,4.05,14.48
						c0.16,0.7,1.24,0.4,1.08-0.3c-1.18-5.11-2.5-10.25-4.31-15.18c-1.35-3.67-2.84-7.74-5.22-10.88
						C685.16,519.56,684.19,520.11,684.62,520.69L684.62,520.69z"/>
				</g>
				<g>
					<path class="st4" d="M721.43,507.67c0.38,4.72,2.67,9.03,2.82,13.78c0.02,0.72,1.14,0.72,1.12,0
						c-0.15-4.76-2.43-9.06-2.82-13.78C722.49,506.96,721.37,506.95,721.43,507.67L721.43,507.67z"/>
				</g>
				<g>
					<path class="st4" d="M699.6,468.37c-1.57,4.91-1.35,10.26-2.02,15.33c-0.09,0.71,1.03,0.7,1.12,0
						c0.65-4.98,0.44-10.22,1.98-15.04C700.9,467.98,699.82,467.69,699.6,468.37L699.6,468.37z"/>
				</g>
				<g>
					<path class="st4" d="M690.71,488.75c2.45,3.46,4.46,7.2,6.99,10.61c2.33,3.14,4.23,6.16,5.08,10.01c0.16,0.7,1.23,0.4,1.08-0.3
						c-0.74-3.32-2.12-5.81-4.01-8.6c-2.76-4.06-5.33-8.28-8.17-12.28C691.26,487.6,690.29,488.16,690.71,488.75L690.71,488.75z"/>
				</g>
				<g>
					<path class="st4" d="M708.67,502.29c-1.14,6.88-2.25,13.76-2.91,20.71c-0.07,0.72,1.05,0.71,1.12,0
						c0.65-6.85,1.74-13.63,2.87-20.41C709.86,501.88,708.79,501.58,708.67,502.29L708.67,502.29z"/>
				</g>
				<g>
					<path class="st4" d="M738.14,484.51c-2.76,7.22-7.45,13.59-10.72,20.58c-0.3,0.65,0.66,1.22,0.97,0.56
						c3.31-7.08,8.03-13.53,10.83-20.84C739.48,484.14,738.4,483.85,738.14,484.51L738.14,484.51z"/>
				</g>
			</g>
			<g class="st3">
				<g>
					<path class="st4" d="M1137.22,578.17c-2.17-5.22-4.96-9.96-8.8-14.13c-4.82-5.24-11.05-8.68-15.31-14.48
						c-4.18-5.69-7.71-12.08-11.18-18.21c-2.04-3.61-3.7-7.27-4.38-11.38c-0.66-4.01-0.49-8.17-0.2-12.2
						c-0.28,0.16-0.56,0.32-0.84,0.48c2.7,1.16,4.69,3.2,6.87,5.1c2.16,1.89,4.71,3.33,7.03,5.02c5.41,3.96,10.25,9.16,14.19,14.55
						c3.66,5,6.23,10.9,8.7,16.55c2.15,4.91,3.9,10.51,7.09,14.86c0.35,0.47,1.25,0.21,1.02-0.43c-3.94-11.27-5.53-23.23-5.17-35.14
						c0.16-5.4,0.82-10.88,1.64-16.22c0.8-5.18,2.06-10.43,4.73-14.99c-0.32,0-0.64,0-0.97,0c1.29,2.51,1.59,5.26,2.1,7.99
						c0.57,3.08,1.65,5.99,2.76,8.91c2.42,6.43,3.79,13.3,5.05,20.04c1.34,7.17,1.65,13.89,0.55,21.11
						c-1.01,6.62-2.84,13.09-4.21,19.64c-0.12,0.59,0.73,1.02,1.02,0.43c1.98-3.98,3.83-8.01,5.49-12.13
						c1.8-4.49,2.99-9.16,4.58-13.73c2.5-7.17,6.77-13.68,13.62-17.25c8.19-4.27,26.91-8.52,29.05,4.76
						c0.27-0.21,0.55-0.42,0.82-0.63c-12.37-5.24-22.07,6.32-28.29,15.54c-4.21,6.24-8.56,12.11-13.37,17.92
						c-1.91,2.31-3.62,5.15-5.84,7.15c-1.98,1.79-5.84,4.52-8.65,4.26c-0.72-0.07-0.71,1.05,0,1.12c3.73,0.35,8.89-3.43,10.97-6.3
						c4.24-5.85,9.27-11.08,13.51-16.93c6.98-9.64,16.22-28.09,31.1-21.79c0.47,0.2,0.9-0.12,0.82-0.63
						c-2.12-13.18-19.36-10.23-28.14-6.61c-6.67,2.75-11.36,7.64-14.59,14.08c-2.23,4.46-3.35,9.32-4.93,14.02
						c-1.92,5.71-4.44,11.2-7.12,16.59c0.34,0.14,0.68,0.29,1.02,0.43c1.44-6.87,3.31-13.66,4.36-20.61
						c1.01-6.66,0.69-13.06-0.51-19.66c-1.28-7.11-2.74-14.31-5.24-21.1c-1.08-2.95-2.1-5.83-2.76-8.91
						c-0.61-2.84-0.86-5.64-2.22-8.26c-0.2-0.38-0.76-0.35-0.97,0c-5.1,8.68-5.83,19.97-6.43,29.81
						c-0.77,12.57,0.96,25.51,5.12,37.4c0.34-0.14,0.68-0.29,1.02-0.43c-3.36-4.59-5.21-10.58-7.49-15.78
						c-2.63-6-5.52-11.98-9.48-17.22c-3.58-4.73-7.96-9.16-12.67-12.79c-2.69-2.07-5.66-3.77-8.22-6.01
						c-2.06-1.79-3.89-3.6-6.43-4.69c-0.4-0.17-0.81,0.03-0.84,0.48c-0.52,7.2-0.23,14.07,2.9,20.66
						c3.22,6.78,7.48,13.3,11.56,19.59c1.74,2.68,3.71,5.17,6.01,7.39c2.52,2.43,5.51,4.34,8.12,6.68
						c5.08,4.55,8.71,10.13,11.31,16.39C1136.42,579.13,1137.5,578.84,1137.22,578.17L1137.22,578.17z"/>
				</g>
				<g>
					<path class="st4" d="M1129.61,578.88c-6.33-10.24-11.38-24.13-23.52-28.81c-6.46-2.49-14.26-1.08-20.32,1.8
						c-6.84,3.25-12.28,9.02-17.09,14.72c-0.34,0.4-0.03,1.1,0.54,0.93c10.36-3.05,23.37-3.68,32.98,2.04
						c4.59,2.74,8.18,7.38,11.8,11.23c2.39,2.55,4.15,6.83,7.85,7.72c0.7,0.17,1-0.91,0.3-1.08c-2.48-0.6-4.16-3.31-5.6-5.21
						c-1.36-1.81-2.91-3.4-4.46-5.06c-3.7-3.97-7.32-7.95-12.4-10.12c-9.55-4.07-20.98-3.49-30.76-0.61
						c0.18,0.31,0.36,0.62,0.54,0.93c8.82-10.43,21.62-21.28,36.33-16.23c6.03,2.07,10.35,7.61,13.74,12.72
						c3.33,5.02,5.95,10.46,9.11,15.58C1129.02,580.06,1129.99,579.5,1129.61,578.88L1129.61,578.88z"/>
				</g>
				<g>
					<path class="st4" d="M1112.68,530.31c4.53,9.5,12.56,16.51,18.34,25.17c2.87,4.3,5.37,9.11,7.53,13.8
						c2.66,5.77,1.82,11.71,1.77,17.87c-0.01,0.72,1.11,0.72,1.12,0c0.04-5.21,0.93-10.72-0.81-15.72
						c-1.82-5.24-4.89-10.25-7.7-15.02c-5.61-9.5-14.49-16.6-19.28-26.66C1113.34,529.09,1112.37,529.66,1112.68,530.31
						L1112.68,530.31z"/>
				</g>
				<g>
					<path class="st4" d="M1097.35,559.07c8.28,4.39,16.37,8.97,22.11,16.56c2.04,2.69,4.03,5.42,6.1,8.09
						c0.61,0.78,2.3,3.7,3.57,3.57c0.71-0.07,0.72-1.19,0-1.12c-0.93,0.1-3.96-4.78-4.41-5.38c-1.88-2.48-3.7-5.01-5.61-7.46
						c-5.41-6.93-13.57-11.19-21.19-15.23C1097.27,557.76,1096.71,558.73,1097.35,559.07L1097.35,559.07z"/>
				</g>
				<g>
					<path class="st4" d="M1143.69,528.34c0.09,4.93,1.43,9.66,2.01,14.53c0.69,5.83,0.13,11.88-0.73,17.66
						c-1.58,10.65-0.84,21.45-3.78,31.92c0.37,0.05,0.73,0.1,1.1,0.15c0-0.42,0-0.84,0-1.26c0-0.72-1.12-0.72-1.12,0
						c0,0.42,0,0.84,0,1.26c0,0.63,0.93,0.76,1.1,0.15c2.84-10.12,2.59-20.7,3.69-31.08c0.59-5.62,1.3-11.08,1.02-16.76
						c-0.27-5.59-2.06-10.96-2.17-16.57C1144.79,527.62,1143.67,527.62,1143.69,528.34L1143.69,528.34z"/>
				</g>
				<g>
					<path class="st4" d="M1180.08,535.42c-8.55,5.41-14.76,14.76-19.64,23.44c-4.69,8.35-8.82,18.64-18.16,22.76
						c-0.66,0.29-0.09,1.25,0.56,0.97c8.31-3.66,12.69-12.28,16.78-19.88c5.19-9.65,11.57-20.34,21.02-26.32
						C1181.25,536,1180.69,535.04,1180.08,535.42L1180.08,535.42z"/>
				</g>
			</g>
		</g>
	</g>
	<g>
		<g>
			<path class="st4" d="M947.29,351.8c0,5.95-4.82,10.77-10.77,10.77l0,0c-5.95,0-10.77-4.82-10.77-10.77v-7.47
				c0-5.95,4.82-10.77,10.77-10.77l0,0c5.95,0,10.77,4.82,10.77,10.77V351.8z"/>
			<path class="st4" d="M1057.02,469.39c-2.97-14.51-15.83-53.74-47.15-67.92c-31.32-14.18-60.67-2.64-71.55,3.95
				c-10.88,6.59-23.41,32.31-29.01,56.38c-5.61,24.07-24.73,23.74-39.56,29.01l6.92,25.06l152.98,0.99c0,0,0,0,0.33-3.96
				C1069.88,510.6,1059.99,483.89,1057.02,469.39z M900.58,507.8c6.1,0,33.3-20.44,38.9-19.78c2.8,15,3.13,22.92,3.46,23.91
				C943.28,512.91,902.23,520.16,900.58,507.8z"/>
			<path class="st5" d="M954.93,412.35c-1.98,9.45-10.11,67.26,3.74,105.28c10.77,0.88,26.81,0,26.81,0
				c-3.08-20-9.23-75.39,3.52-107.04C976.25,410.81,954.93,412.35,954.93,412.35z"/>
			<path class="st5" d="M961.96,395.21c-10.88,0.66-13.41,12.42-8.46,19.67c4.94,7.25,14.28,1.32,15.93-2.31
				c11.76,11.1,27.04,1.1,30.33-15.39C999.76,395.87,981.08,392.24,961.96,395.21z"/>
			<path class="st4" d="M992.95,335.62c-0.5-10.97-11.76-31.9-38.46-30.72c-19.01,1.46-21.32,19.47-21.32,19.47
				c-0.66,2.02-4.07,6.3-4.07,6.3c-0.99-8.44,4.35-30.8,28.35-31.4c27.03-0.67,39.94,20.48,40.44,35.68
				C995.75,338.49,992.95,335.62,992.95,335.62z"/>
			<path class="st6" d="M939.91,314.86c-9.13,6.26-14.6,16.67-9.97,27.02c4.63,10.36,5.94,14.92,1.45,23.02
				c-6.31,11.4-8.98,22.03-4.22,31.71c28.64-3.96,41.24-7.18,41.24-7.18S957.33,313.65,939.91,314.86z"/>
			<path class="st7" d="M982.42,367c0,0,7.08,21.34,7.75,30.36c0.61,8.27-26.75,13.79-28.69,5.12c-2.02-10.31-5.03-27.84-5.03-27.84
				"/>
			<path class="st8" d="M984.7,375.91l-2.27-8.91l-25.97,7.63c0,0,0.93,5.39,2.11,12.14c1.93,0.37,3.92,0.54,5.97,0.45
				C972.99,386.85,980.29,382.42,984.7,375.91z"/>
			<path class="st7" d="M937.03,356.63c0.63,14.21,12.67,25.22,26.88,24.58l0,0c14.21-0.63,25.22-12.67,24.58-26.88l-1.22-27.21
				c-0.63-14.21-12.67-25.22-26.88-24.58l0,0c-14.21,0.63-25.22,12.67-24.58,26.88L937.03,356.63z"/>
			<g>
				<path class="st6" d="M971.02,328.46c-3.25-1.75-7.52-2.56-10.92-0.8c-1.27,0.66-0.15,2.57,1.12,1.91
					c2.65-1.37,6.17-0.54,8.68,0.8C971.16,331.05,972.28,329.13,971.02,328.46L971.02,328.46z"/>
			</g>
			<g>
				<path class="st6" d="M939.96,332.05c1.54-1.45,3.74-1.99,5.78-1.57c1.4,0.29,1.99-1.85,0.59-2.14
					c-2.84-0.58-5.81,0.11-7.94,2.14C937.36,331.47,938.93,333.03,939.96,332.05L939.96,332.05z"/>
			</g>
			<g>
				<path class="st6" d="M955.31,351.89c-0.2,0-0.4-0.07-0.55-0.21l-5.02-4.42c-0.2-0.18-0.31-0.45-0.28-0.72
					c0.03-0.27,0.19-0.51,0.42-0.64l5.06-2.84c0.41-0.23,0.92-0.08,1.14,0.32c0.23,0.4,0.08,0.91-0.32,1.14l-4.03,2.27l4.13,3.64
					c0.35,0.31,0.38,0.84,0.07,1.18C955.77,351.8,955.54,351.89,955.31,351.89z"/>
			</g>
			<g>
				<path class="st6" d="M957.17,359.01c-1.35,0-2.68-0.36-3.72-1.06c-0.38-0.26-0.48-0.78-0.22-1.17c0.26-0.38,0.78-0.48,1.16-0.22
					c1.42,0.97,3.82,1.02,5.45,0.11c0.98-0.55,2.13-1.68,2.03-3.95c-0.02-0.46,0.34-0.85,0.8-0.88c0.45-0.03,0.85,0.34,0.88,0.8
					c0.11,2.44-0.91,4.39-2.89,5.49C959.62,358.72,958.38,359.01,957.17,359.01z"/>
			</g>
			<path class="st9" d="M960.94,342.62c0.61,1.62,2.42,2.43,4.04,1.82c1.61-0.61,2.43-2.41,1.82-4.03
				c-0.61-1.62-2.42-2.44-4.03-1.83C961.15,339.19,960.34,341,960.94,342.62z"/>
			<path class="st9" d="M942.23,343.74c0.61,1.61,2.42,2.44,4.04,1.82c1.61-0.61,2.44-2.42,1.82-4.04
				c-0.61-1.62-2.42-2.43-4.03-1.82C942.43,340.31,941.62,342.12,942.23,343.74z"/>
			<g>
				<path class="st9" d="M943.03,343c-0.13,0-0.26-0.04-0.38-0.11l-3.05-1.87c-0.35-0.21-0.46-0.67-0.24-1.01
					c0.21-0.35,0.67-0.45,1.01-0.24l3.05,1.87c0.35,0.21,0.46,0.67,0.24,1.01C943.53,342.87,943.28,343,943.03,343z"/>
			</g>
			<g>
				<path class="st9" d="M965.22,341.9c-0.23,0-0.46-0.11-0.61-0.32c-0.23-0.33-0.15-0.79,0.19-1.02l3.19-2.21
					c0.33-0.23,0.79-0.15,1.02,0.19c0.23,0.33,0.15,0.79-0.19,1.02l-3.19,2.21C965.51,341.85,965.36,341.9,965.22,341.9z"/>
			</g>
			<path class="st6" d="M1012.98,356.8c-4.27-9.2,1-14.92-1.27-23.69c-1.99-7.67-11.12-7.43-15.83-18.3
				c-7.21-16.66-44.34-31.66-58.18,2.15c15.39-10.43,31.16-5.01,37.14,2.7c12.07,15.55-0.32,22.14,4.34,31.39
				c3.4,6.74,5.62,11.28,1.23,21.48c-4.39,10.2,1.76,19.9,1.76,19.9c14.37-1.59,30.61-3,45.36-5.5
				C1027.54,362.04,1017.25,366,1012.98,356.8z"/>
			<path class="st7" d="M947.67,484.22c-12.53,1.1-17.36,4.84-28.57,10.77c-11.21,5.93-13.63,7.25-10.99,8.35
				c-6.59,0.44-2.75,3.95,1.87,2.41c-3.08,1.32,1.21,2.75,7.36,0.44c1.54,2.42,9.45,1.32,14.51-1.54
				c5.06-2.86,17.14-5.28,28.13-1.54c1.32-6.81-2.86-18.68-2.86-18.68L947.67,484.22z"/>
			<path class="st4" d="M955.64,484.39c6.76-1.48,25.66-3.02,36.87-2.36c0.66,8.79-4.18,26.6-4.18,26.6l-29.89-6.6
				C958.44,502.03,959.93,492.63,955.64,484.39z"/>
			<g>
				<path class="st10" d="M955.07,484.55c13.35-1.93,26.84-1.89,40.3-2.27c6.48-0.18,12.7-0.94,19.12-1.67
					c6.1-0.7,13.33,0.63,19.2,2.4c0.69,0.21,0.98-0.87,0.3-1.08c-5.42-1.64-11.76-2.72-17.43-2.59c-2.81,0.06-5.63,0.64-8.4,1.05
					c-3.86,0.58-7.79,0.61-11.68,0.74c-13.92,0.45-27.87,0.35-41.69,2.34C954.07,483.57,954.37,484.65,955.07,484.55L955.07,484.55z
					"/>
			</g>
			<g>
				<path class="st10" d="M1014.61,450.3c1.27,9.28,1.93,18.62,1.96,27.99c0,0.72,1.12,0.72,1.12,0c-0.03-9.47-0.71-18.9-2-28.28
					C1015.59,449.3,1014.51,449.6,1014.61,450.3L1014.61,450.3z"/>
			</g>
			<g>
				<path class="st10" d="M957.56,502.59c4.04-0.05,7.79,1.74,11.62,2.78c4.56,1.24,9.02,2.78,13.57,4.03
					c9.2,2.52,18.77,4.13,28.3,4.68c15.16,0.88,33.5,0.13,44.94-11.21c0.51-0.51-0.28-1.3-0.79-0.79
					c-11.96,11.86-31.62,11.88-47.32,10.68c-9.39-0.72-18.8-2.63-27.83-5.27c-4.06-1.19-8.1-2.43-12.15-3.64
					c-3.41-1.02-6.71-2.41-10.33-2.37C956.84,501.48,956.84,502.59,957.56,502.59L957.56,502.59z"/>
			</g>
			<g>
				<path class="st10" d="M935.26,438.8c-1,3-0.7,6.22-0.66,9.34c0.06,4.29,0.38,8.57,0.6,12.85c0.22,4.23,0.35,8.46,0.69,12.68
					c0.31,3.9,1.79,7.59,1.99,11.44c0.04,0.72,1.16,0.72,1.12,0c-0.19-3.53-1.54-6.87-1.89-10.39c-0.39-3.86-0.51-7.75-0.68-11.62
					c-0.17-3.91-0.44-7.81-0.6-11.72c-0.16-3.91-0.73-8.52,0.52-12.28C936.57,438.41,935.49,438.12,935.26,438.8L935.26,438.8z"/>
			</g>
			<g>
				<path class="st10" d="M952.19,400.55c-1.75,6.19-2.99,14.08,3.95,17.56c2.5,1.25,5.35,0.63,7.77-0.46
					c1.7-0.77,3.17-2.07,4.58-3.27c1.42-1.21,2.04,0.63,3.29,1.52c10.2,7.29,23.62-2.8,26.99-12.86c0.23-0.69-0.85-0.98-1.08-0.3
					c-3.6,10.73-19,20.59-27.86,9.64c-0.2-0.25-0.58-0.19-0.79,0c-3.68,3.3-8.45,7.22-13.47,4.12c-5.46-3.37-3.72-10.68-2.3-15.67
					C953.46,400.15,952.39,399.86,952.19,400.55L952.19,400.55z"/>
			</g>
			<g>
				<path class="st10" d="M916.83,507.19c3.52-0.63,6.35-2.83,9.31-4.69c4.09-2.56,8.68-4.04,13.11-5.86
					c0.66-0.27,0.37-1.35-0.3-1.08c-3.66,1.51-7.41,2.78-10.94,4.58c-3.84,1.95-7.12,5.2-11.48,5.97
					C915.82,506.23,916.13,507.31,916.83,507.19L916.83,507.19z"/>
			</g>
			<g>
				<path class="st10" d="M908.83,507.13c8.9-3.76,17.1-9.04,26.24-12.25c0.68-0.24,0.38-1.32-0.3-1.08
					c-9.23,3.25-17.52,8.57-26.51,12.37C907.61,506.44,908.18,507.41,908.83,507.13L908.83,507.13z"/>
			</g>
			<g>
				<path class="st10" d="M906.85,504.49c3.52-2.13,7.53-3.13,11.14-5.05c3.58-1.9,7.14-3.85,10.84-5.5
					c0.66-0.29,0.09-1.26-0.56-0.97c-3.7,1.65-7.26,3.6-10.84,5.5c-3.61,1.93-7.62,2.91-11.14,5.05
					C905.67,503.9,906.23,504.87,906.85,504.49L906.85,504.49z"/>
			</g>
			<g>
				<path class="st10" d="M964.83,421.9c0.38,1.98,3.18,1.92,4.09,0.38c0.5-0.85-0.04-1.86-0.82-2.3c-0.95-0.54-2.39-0.45-3.05,0.5
					c-0.41,0.59,0.56,1.15,0.97,0.56c0.49-0.71,2.55,0.03,1.83,0.83c-0.55,0.61-1.76,0.65-1.94-0.27
					C965.77,420.89,964.69,421.19,964.83,421.9L964.83,421.9z"/>
			</g>
			<g>
				<path class="st10" d="M963.34,430.17c-0.28,1.98,2.01,2.53,3.34,1.43c0.68-0.56,1.03-1.64,0.46-2.41
					c-0.6-0.79-1.75-0.67-2.58-0.4c-0.68,0.22-0.39,1.3,0.3,1.08c0.42-0.13,0.96-0.29,1.37-0.05c0.35,0.2-0.12,0.83-0.3,0.96
					c-0.41,0.3-1.62,0.52-1.5-0.32C964.52,429.76,963.45,429.46,963.34,430.17L963.34,430.17z"/>
			</g>
			<g>
				<path class="st10" d="M962.66,440.87c0.1,2.24,3.41,1.35,3.74-0.35c0.4-2.07-3.2-3.2-3.55-0.96c-0.11,0.71,0.97,1.01,1.08,0.3
					c0.14-0.86,1.37-0.27,1.38,0.4c0.01,0.53-1.5,1.25-1.53,0.61C963.75,440.15,962.63,440.15,962.66,440.87L962.66,440.87z"/>
			</g>
			<g>
				<path class="st10" d="M940.9,502.03c-0.17,1.65,0.07,3.55,0.68,5.1c0.26,0.66,1.34,0.37,1.08-0.3c-0.59-1.47-0.8-3.23-0.64-4.8
					C942.1,501.31,940.98,501.32,940.9,502.03L940.9,502.03z"/>
			</g>
			<g>
				<path class="st10" d="M954.87,484.71c2.09,1.47,2.25,4.37,2.84,6.64c0.78,2.99,1.36,6.71,0.04,9.63
					c-0.3,0.65,0.67,1.22,0.97,0.56c1.5-3.3,0.87-7.08,0.08-10.5c-0.62-2.65-0.98-5.64-3.36-7.3
					C954.84,483.33,954.28,484.3,954.87,484.71L954.87,484.71z"/>
			</g>
			<g>
				<path class="st10" d="M927.9,358.24c-1.76,13.04,17.5,13.08,25.82,12.68c0.72-0.03,0.72-1.15,0-1.12
					c-7.34,0.35-26.35,0.7-24.74-11.27C929.07,357.84,928,357.53,927.9,358.24L927.9,358.24z"/>
			</g>
			<path class="st4" d="M960.2,370.21c0,1.85-1.85,3.35-4.12,3.35c-2.28,0-4.12-1.5-4.12-3.35c0-1.85,1.84-3.35,4.12-3.35
				C958.36,366.85,960.2,368.36,960.2,370.21z"/>
			<path class="st4" d="M957.45,299.27c-13.69,0.34-21.31,7.76-25.14,15.64c1.31,0.14,2.72,0.53,3.89,1.08
				c2.84-4.92,8.22-10.32,18.28-11.1c26.71-1.18,37.97,19.75,38.46,30.72c0,0,2.8,2.87,4.95-0.67
				C997.4,319.75,984.49,298.59,957.45,299.27z"/>
			<path class="st4" d="M1006.58,351.8c0,5.95-4.82,10.77-10.77,10.77l0,0c-5.95,0-10.77-4.82-10.77-10.77v-7.47
				c0-5.95,4.82-10.77,10.77-10.77l0,0c5.95,0,10.77,4.82,10.77,10.77V351.8z"/>
			<g>
				<path class="st10" d="M1004.04,350.65c-0.39,7.27-10.15,8.94-12.83,2.11c-0.8-2.04-0.34-4.92-0.34-7.07
					c0-7.44,10.23-8.72,12.83-2.11C1004.5,345.62,1004.04,348.5,1004.04,350.65c0,0.72,1.12,0.72,1.12,0
					c0-4.49,0.44-8.81-3.82-11.61c-5.15-3.39-11.29,1.16-11.59,6.65c-0.24,4.41-0.27,8.92,3.81,11.61
					c5.15,3.39,11.3-1.16,11.59-6.65C1005.2,349.93,1004.08,349.93,1004.04,350.65z"/>
			</g>
		</g>
		<g>
			<path class="st11" d="M878,507.08c6.15,0,81.98,0,85.94,0c3.96,0,4.84,7.91-1.76,7.91c-6.59,0-197.16,0-197.16,0
				c-5.94-11.87-32.53-84.4-35.17-91.22c-2.64-6.81-0.22-14.73,10.55-14.73c10.77,0,67.7,0,75.61,0c7.91,0,16.7,1.32,22.2,13.41
				C843.71,434.55,878,507.08,878,507.08z"/>
			<path class="st12" d="M964.21,514.68c0.26-0.09,0.49-0.2,0.71-0.32c0.02-0.01,0.04-0.02,0.06-0.03c3.38-1.89,2.22-7.25-1.04-7.25
				c-0.64,0-3.19,0-7.03,0c-19.75,0-73.75,0-78.91,0c0,0-0.03-0.06-0.07-0.15c-0.04-0.08-0.09-0.19-0.17-0.35
				c-0.31-0.65-0.9-1.91-1.74-3.69c-7.37-15.61-33.11-70.1-37.81-80.44c-5.49-12.09-14.29-13.41-22.2-13.41c-1.25,0-3.72,0-7.04,0
				c7.91,0,16.71,1.32,22.2,13.41c5.49,12.09,39.78,84.62,39.78,84.62l2.97,7.7c0,0,3.71,0.09,9.62,0.22c30.78,0,58.86,0,71.6,0
				c3.9,0,6.38,0,7.03,0c0.4,0,0.76-0.03,1.1-0.09c0.22-0.03,0.41-0.09,0.61-0.15C964,514.73,964.11,514.72,964.21,514.68z"/>
			<path class="st13" d="M806.56,463.13c2.17,5.37-0.4,9.71-5.74,9.71c-5.34,0-11.43-4.35-13.6-9.71c-2.17-5.37,0.4-9.72,5.74-9.72
				C798.31,453.41,804.39,457.76,806.56,463.13z"/>
		</g>
		<g>
			<path class="st14" d="M1064.76,521.13H754.72v49.15c34.04,7.25,79.91,12.48,125.08,13.05c61.84,0.78,125.97,0.08,184.96-2.79
				V521.13z"/>
			<path class="st7" d="M1077.63,519.91c0,2.93-2.38,5.31-5.31,5.31H747.17c-2.93,0-5.31-2.38-5.31-5.31l0,0
				c0-2.93,2.38-5.31,5.31-5.31h325.15C1075.25,514.6,1077.63,516.98,1077.63,519.91L1077.63,519.91z"/>
		</g>
	</g>
	<g>
		<path class="st4" d="M717.35,331.63c7.37,6.98,13.39,6.98,13.38,0c-0.02-6.98-0.04-18.41-0.05-25.39
			c-0.02-6.98-6.05-12.7-13.4-12.7c-7.36,0-19.39,0-26.75,0c-7.36,0-7.34,5.71,0.03,12.7C697.92,313.22,709.98,324.64,717.35,331.63
			z"/>
		<path class="st4" d="M893.14,264.05c0,23.7-19.21,42.91-42.91,42.91H692.72c-23.7,0-42.91-19.21-42.91-42.91v-56.53
			c0-23.69,19.21-42.9,42.91-42.9h157.51c23.7,0,42.91,19.21,42.91,42.9V264.05z"/>
		<g>
			<g>
				<path class="st7" d="M774.2,191.69v17.41h-3.36v-7.43h-7.89v7.43h-3.38v-17.41h3.38v7.04h7.89v-7.04H774.2z"/>
				<path class="st7" d="M789.92,206.13v2.97h-12.09v-17.41h11.87v2.97h-8.48v4.19h7.31v2.75h-7.31v4.54H789.92z"/>
				<path class="st7" d="M792.57,209.1v-17.41h3.38v14.44h8.88v2.97H792.57z"/>
				<path class="st7" d="M806.88,209.1v-17.41h7.38c0.8,0,1.54,0.16,2.22,0.49c0.68,0.33,1.26,0.77,1.75,1.32
					c0.49,0.56,0.87,1.18,1.14,1.86s0.41,1.39,0.41,2.11c0,0.96-0.22,1.89-0.66,2.78c-0.44,0.89-1.07,1.61-1.88,2.17
					c-0.81,0.56-1.75,0.83-2.83,0.83h-4.14v5.83H806.88z M810.27,200.29h3.92c0.42,0,0.8-0.11,1.13-0.34
					c0.33-0.23,0.58-0.56,0.77-0.99c0.19-0.43,0.28-0.93,0.28-1.48c0-0.6-0.11-1.12-0.33-1.53c-0.22-0.42-0.51-0.74-0.86-0.96
					s-0.73-0.33-1.14-0.33h-3.78V200.29z"/>
				<path class="st7" d="M822.48,202.55v-10.98h3.29v10.98H822.48z M822.48,209.1v-3.7h3.29v3.7H822.48z"/>
			</g>
		</g>
		<rect x="760.29" y="220.49" class="st2" width="109.85" height="7.14"/>
		<rect x="760.29" y="237.84" class="st2" width="94.86" height="7.14"/>
		<rect x="760.29" y="255.2" class="st2" width="62.92" height="7.14"/>
		<rect x="760.29" y="272.55" class="st2" width="101.77" height="7.14"/>
		<g>
			<path class="st6" d="M738.48,277.05c-3.27-8.13-14.6-13.94-20.39-13.86h-19.54c-6.42,0.6-17.11,5.73-20.39,13.86
				c7.65,7.58,18.33,12.28,30.16,12.28C720.15,289.33,730.83,284.62,738.48,277.05z"/>
			<path class="st7" d="M700.34,246.5c0,0-1.87,15.38-3.16,24.07c-0.94,6.35,21.85,8.14,22.54,1.29c0.6-8.12,1.3-21.88,1.3-21.88"/>
			<path class="st8" d="M699.41,253.56l0.93-7.07l20.67,3.48c0,0-0.22,4.23-0.5,9.53c-1.45,0.46-2.97,0.78-4.55,0.9
				C709.42,260.9,703.4,258.16,699.41,253.56z"/>
			<path class="st7" d="M734.3,234.34c0.82,10.99-7.42,20.56-18.41,21.38l0,0c-10.99,0.82-20.56-7.42-21.38-18.41l-1.57-21.04
				c-0.82-10.99,7.42-20.56,18.41-21.38l0,0c10.99-0.82,20.56,7.42,21.38,18.4L734.3,234.34z"/>
			<g>
				<path class="st6" d="M707.13,218.47c2.8-0.59,5.04-1.84,6.72-4.18c0.84-1.17-1.09-2.27-1.91-1.12c-1.33,1.86-3.21,2.7-5.4,3.16
					C705.15,216.63,705.74,218.77,707.13,218.47L707.13,218.47z"/>
			</g>
			<g>
				<path class="st6" d="M729.71,214.11c-1.57-0.29-2.53-1.04-3.3-2.43c-0.69-1.25-2.61-0.13-1.91,1.12
					c1.02,1.85,2.53,3.05,4.62,3.45C730.52,216.51,731.11,214.38,729.71,214.11L729.71,214.11z"/>
			</g>
			<g>
				<path class="st6" d="M719.72,232.58c-0.2,0-0.4-0.07-0.56-0.21c-0.34-0.31-0.37-0.84-0.07-1.18l2.67-2.98l-3.06-1.27
					c-0.43-0.18-0.63-0.67-0.45-1.1c0.18-0.43,0.67-0.63,1.1-0.45l4.15,1.72c0.25,0.1,0.44,0.32,0.5,0.59
					c0.06,0.26-0.01,0.54-0.19,0.75l-3.45,3.86C720.18,232.48,719.95,232.58,719.72,232.58z"/>
			</g>
			<g>
				<path class="st6" d="M714.68,241.06c-0.26,0-0.52-0.12-0.69-0.35c-0.27-0.38-0.18-0.9,0.2-1.17c3.3-2.33,6.26-3.27,8.82-2.79
					c0.45,0.09,0.75,0.53,0.67,0.98c-0.09,0.45-0.52,0.75-0.98,0.67c-2.08-0.4-4.62,0.45-7.53,2.51
					C715.02,241.01,714.85,241.06,714.68,241.06z"/>
			</g>
			<path class="st9" d="M714.61,225.77c-0.32,1.3-1.64,2.09-2.94,1.77c-1.3-0.32-2.09-1.64-1.77-2.94c0.32-1.3,1.63-2.1,2.93-1.77
				C714.14,223.15,714.93,224.47,714.61,225.77z"/>
			<path class="st9" d="M729.11,224.9c-0.32,1.3-1.63,2.1-2.94,1.77c-1.3-0.32-2.1-1.64-1.77-2.94c0.32-1.3,1.64-2.09,2.93-1.77
				C728.64,222.29,729.43,223.6,729.11,224.9z"/>
			<path class="st7" d="M698.33,232.03c0.94,3.89-1.44,7.81-5.33,8.75l0,0c-3.89,0.95-7.81-1.44-8.75-5.33l-0.54-2.22
				c-0.94-3.89,1.44-7.81,5.33-8.75l0,0c3.89-0.94,7.81,1.44,8.75,5.33L698.33,232.03z"/>
			<path class="st6" d="M687.4,225.2c-1.7-4.85-10-24.58,2.34-25.18c0.77-7.75,11.54-11.83,24.99-14.47
				c13.45-2.64,21.84,3.66,20.81,9.96c-1.02,6.3-9.28,8.6-15.83,6.72c-1.87,6.81-10.9,4.51-12.85,3.15c-1.51,6.6-9,8.19-8.15,12.79
				c0.85,4.6,1.23,9.28,1.4,10.22c0.17,0.94-3.74,2.77-4.6,0.89C694.66,227.42,691.3,224.06,687.4,225.2z"/>
		</g>
		<g>
			<path class="st10" d="M724.58,332.94c8.16,1.62,3.49-26.07,3.43-30.25c-0.19,0.19-0.37,0.37-0.56,0.56
				c17.57,0.16,35.14,0.2,52.71,0.05c12.56-0.11,25.11-0.43,37.67-0.43c7.72,0,15.41-0.28,23.12-0.58
				c8.27-0.32,16.52-0.29,24.57-2.43c15.42-4.1,21.03-20.4,22.62-34.7c0.08-0.72-1.04-0.71-1.12,0
				c-1.18,10.62-4.4,22.25-12.94,29.32c-6.43,5.33-15.92,6-23.9,6.39c-7.95,0.39-15.93,0.72-23.89,0.84
				c-25.18,0.36-50.37,0.61-75.55,0.55c-7.76-0.02-15.52-0.05-23.28-0.12c-0.3,0-0.56,0.26-0.56,0.56
				c0.05,3.52,3.69,30.3-2.02,29.17C724.18,331.73,723.88,332.8,724.58,332.94L724.58,332.94z"/>
		</g>
		<g>
			<path class="st10" d="M887.62,217.31c0.01,13.89,0.61,27.85-0.34,41.71c-0.05,0.72,1.07,0.72,1.12,0
				c0.95-13.87,0.35-27.83,0.34-41.71C888.74,216.59,887.62,216.59,887.62,217.31L887.62,217.31z"/>
		</g>
	</g>
	<g>
		<path class="st4" d="M1321.65,398.7c0,24.57-19.92,44.48-44.48,44.48h-163.3c-24.57,0-44.48-19.92-44.48-44.48v-58.6
			c0-24.57,19.92-44.48,44.48-44.48h163.3c24.57,0,44.48,19.92,44.48,44.48V398.7z"/>
		<path class="st4" d="M1119.74,468.76c-7.64,7.24-13.88,7.24-13.87,0c0.02-7.24,0.04-19.08,0.06-26.32
			c0.02-7.24,6.27-13.16,13.89-13.16c7.63,0,20.11,0,27.73,0c7.63,0,7.61,5.92-0.03,13.16
			C1139.89,449.67,1127.38,461.52,1119.74,468.76z"/>
		<g>
			<g>
				<path class="st7" d="M1117.36,329.85h-5.74v14.97h-3.48v-14.97h-5.8v-3.08h15.02V329.85z"/>
				<path class="st7" d="M1134.8,326.78v18.05h-3.48v-7.7h-8.18v7.7h-3.51v-18.05h3.51v7.29h8.18v-7.29H1134.8z"/>
				<path class="st7" d="M1143.47,326.78h3.56l6.63,18.05h-3.61l-1.5-4.5h-6.63l-1.51,4.5h-3.61L1143.47,326.78z M1147.73,337.86
					l-2.48-7.45l-2.5,7.45H1147.73z"/>
				<path class="st7" d="M1159.15,333.23v11.59h-3.51v-18.05h2.82l9.3,11.9V326.8h3.48v18.02h-2.9L1159.15,333.23z"/>
				<path class="st7" d="M1175.04,344.83v-18.05h3.51v8.58l7.58-8.6h3.86l-6.91,8.04l7.35,10.03h-3.96l-5.59-7.79l-2.31,2.39v5.4
					H1175.04z"/>
				<path class="st7" d="M1202.79,331.51c-0.12-0.12-0.33-0.28-0.65-0.47s-0.69-0.39-1.14-0.6c-0.45-0.2-0.94-0.37-1.46-0.51
					c-0.53-0.14-1.06-0.2-1.6-0.2c-0.95,0-1.67,0.17-2.15,0.52c-0.48,0.35-0.72,0.85-0.72,1.5c0,0.49,0.15,0.88,0.46,1.16
					s0.76,0.53,1.37,0.73c0.61,0.2,1.37,0.42,2.29,0.66c1.19,0.29,2.22,0.64,3.09,1.05c0.87,0.41,1.54,0.95,2.01,1.62
					c0.47,0.67,0.7,1.56,0.7,2.67c0,0.94-0.18,1.75-0.53,2.43s-0.84,1.23-1.46,1.66c-0.62,0.43-1.33,0.74-2.13,0.94
					c-0.8,0.19-1.66,0.29-2.55,0.29s-1.8-0.09-2.69-0.28c-0.9-0.19-1.76-0.45-2.58-0.8c-0.82-0.35-1.59-0.77-2.3-1.26l1.55-3.02
					c0.15,0.15,0.42,0.35,0.81,0.6s0.86,0.49,1.42,0.74c0.56,0.25,1.17,0.45,1.83,0.62s1.33,0.25,2.01,0.25
					c0.97,0,1.69-0.15,2.16-0.46c0.47-0.31,0.71-0.77,0.71-1.37c0-0.54-0.19-0.97-0.57-1.28c-0.38-0.31-0.92-0.58-1.61-0.81
					c-0.7-0.23-1.52-0.47-2.47-0.72c-1.15-0.32-2.11-0.68-2.86-1.09c-0.75-0.41-1.32-0.91-1.7-1.51c-0.38-0.6-0.57-1.35-0.57-2.27
					c0-1.23,0.3-2.27,0.89-3.1c0.59-0.84,1.39-1.47,2.39-1.9s2.11-0.65,3.33-0.65c0.85,0,1.65,0.09,2.4,0.28
					c0.75,0.19,1.46,0.43,2.12,0.74c0.66,0.3,1.25,0.64,1.78,0.99L1202.79,331.51z"/>
				<path class="st7" d="M1207.95,338.04v-11.39h3.41v11.39H1207.95z M1207.95,344.83v-3.84h3.41v3.84H1207.95z"/>
			</g>
		</g>
		<rect x="1098.99" y="356.64" class="st2" width="113.89" height="7.4"/>
		<rect x="1098.99" y="374.63" class="st2" width="98.35" height="7.41"/>
		<rect x="1098.99" y="392.62" class="st2" width="65.23" height="7.41"/>
		<g>
			<path class="st6" d="M1239.02,414.92c3.39-8.43,15.13-14.45,21.13-14.37h20.26c6.66,0.63,17.74,5.94,21.13,14.37
				c-7.93,7.85-19,12.73-31.26,12.73C1258.03,427.65,1246.95,422.77,1239.02,414.92z"/>
			<g>
				<path class="st7" d="M1278.56,383.25c0,0,1.94,15.94,3.28,24.95c0.98,6.58-22.65,8.43-23.37,1.34
					c-0.63-8.42-1.35-22.68-1.35-22.68"/>
				<path class="st8" d="M1279.52,390.58l-0.96-7.33l-21.43,3.61c0,0,0.22,4.38,0.52,9.88c1.5,0.48,3.07,0.81,4.72,0.93
					C1269.14,398.18,1275.38,395.34,1279.52,390.58z"/>
				<path class="st7" d="M1243.35,370.65c-0.85,11.39,7.7,21.32,19.08,22.17l0,0c11.39,0.85,21.32-7.69,22.17-19.09l1.63-21.81
					c0.85-11.39-7.7-21.32-19.08-22.17l0,0c-11.39-0.85-21.32,7.69-22.17,19.08L1243.35,370.65z"/>
				<g>
					<path class="st6" d="M1271.67,352.17c-1.12-2.16-3.62-3.66-6.08-3.37c-1.4,0.16-1.42,2.38,0,2.22c1.75-0.2,3.36,0.73,4.16,2.27
						C1270.42,354.56,1272.33,353.44,1271.67,352.17L1271.67,352.17z"/>
				</g>
				<g>
					<path class="st6" d="M1249.21,351.56c0.97-1.02,2.75-1.72,4.14-1.38c1.39,0.34,1.98-1.8,0.59-2.14
						c-2.15-0.52-4.77,0.35-6.29,1.95C1246.65,351.03,1248.22,352.6,1249.21,351.56L1249.21,351.56z"/>
				</g>
				<g>
					<path class="st6" d="M1258.46,368.79c-0.23,0-0.46-0.09-0.63-0.28l-3.58-4.01c-0.18-0.2-0.25-0.48-0.19-0.75
						c0.06-0.26,0.25-0.48,0.5-0.59l4.3-1.79c0.43-0.18,0.92,0.03,1.09,0.45c0.18,0.43-0.03,0.92-0.45,1.09l-3.21,1.33l2.79,3.12
						c0.31,0.34,0.28,0.88-0.07,1.18C1258.86,368.72,1258.66,368.79,1258.46,368.79z"/>
				</g>
				<g>
					<path class="st6" d="M1258.14,380.27C1258.14,380.27,1258.14,380.27,1258.14,380.27c-2.3,0-3.85-2.43-4.75-7.44
						c-0.05-0.27,0.03-0.54,0.22-0.73c0.19-0.19,0.46-0.28,0.72-0.25c1.41,0.21,3.21,0.42,5.8,0.42c1.34,0,2.79-0.05,4.44-0.17
						c0.3-0.03,0.61,0.13,0.77,0.4c0.16,0.26,0.17,0.6,0.01,0.87C1262.61,378.01,1260.25,380.27,1258.14,380.27z M1255.26,373.67
						c0.7,3.15,1.73,4.92,2.88,4.92c0.74,0,2.31-0.65,4.93-4.72C1260.04,374.02,1257.74,373.97,1255.26,373.67z"/>
				</g>
				<path class="st9" d="M1263.76,361.75c0.33,1.35,1.7,2.17,3.04,1.84c1.35-0.33,2.17-1.7,1.84-3.04
					c-0.33-1.35-1.69-2.17-3.04-1.84C1264.25,359.04,1263.43,360.41,1263.76,361.75z"/>
				<path class="st9" d="M1248.73,360.86c0.33,1.34,1.7,2.17,3.04,1.84c1.34-0.33,2.17-1.7,1.84-3.04c-0.33-1.35-1.7-2.17-3.04-1.84
					C1249.22,358.15,1248.4,359.51,1248.73,360.86z"/>
			</g>
			<path class="st7" d="M1280.64,368.25c-0.98,4.03,1.49,8.09,5.52,9.07l0,0c4.03,0.98,8.1-1.49,9.07-5.53l0.56-2.3
				c0.98-4.03-1.49-8.09-5.52-9.07l0,0c-4.03-0.98-8.09,1.5-9.07,5.53L1280.64,368.25z"/>
			<path class="st6" d="M1291.98,361.18c1.76-5.03,10.37-25.49-2.43-26.1c-0.8-8.03-11.96-12.27-25.9-15
				c-13.94-2.73-22.64,3.8-21.58,10.33c1.06,6.53,9.62,8.91,16.42,6.97c1.94,7.06,11.3,4.68,13.33,3.27
				c1.57,6.84,9.33,8.49,8.45,13.26c-0.88,4.77-1.28,9.62-1.46,10.59c-0.17,0.97,3.88,2.87,4.77,0.92
				C1284.45,363.47,1287.94,359.98,1291.98,361.18z"/>
		</g>
		<g>
			<path class="st10" d="M1276.64,439.88c16.42-0.65,34.02-11.1,37.51-28.07c0.15-0.7-0.93-1-1.08-0.3
				c-3.4,16.48-20.49,26.61-36.44,27.25C1275.92,438.79,1275.92,439.91,1276.64,439.88L1276.64,439.88z"/>
		</g>
		<g>
			<path class="st10" d="M1263.06,439.97c3,0.11,5.99,0.17,8.99,0.23c0.72,0.02,0.72-1.1,0-1.12c-3-0.07-5.99-0.13-8.99-0.23
				C1262.33,438.83,1262.34,439.95,1263.06,439.97L1263.06,439.97z"/>
		</g>
		<g>
			<path class="st10" d="M1119.49,464.66c5.63-5.06,11.28-10.1,16.57-15.53c2.45-2.51,4.63-5.78,7.59-7.77
				c1.75-1.18,3.92-1.36,5.97-1.48c4.03-0.23,8.08-0.13,12.11-0.18c7.31-0.1,14.62-0.49,21.93-0.48c7.84,0.02,15.67,0.37,23.49,0.73
				c15.24,0.7,30.53,1.42,45.74-0.15c0.71-0.07,0.72-1.19,0-1.12c-15.57,1.6-31.2,0.81-46.8,0.1c-8.2-0.37-16.4-0.69-24.61-0.68
				c-7.32,0.01-14.64,0.42-21.96,0.5c-4.99,0.05-11.95-1.05-16.44,1.79c-2.79,1.76-4.88,4.86-7.09,7.19
				c-5.45,5.75-11.41,10.99-17.29,16.28C1118.16,464.36,1118.96,465.14,1119.49,464.66L1119.49,464.66z"/>
		</g>
	</g>
	<g>
		<path class="st14" d="M1229.51,238.51c0,12.86-10.43,23.28-23.28,23.28h-216.8c-12.86,0-23.28-10.43-23.28-23.28v-21.67
			c0-12.86,10.43-23.29,23.28-23.29h216.8c12.86,0,23.28,10.43,23.28,23.29V238.51z"/>
		<g>
			<g>
				<path class="st7" d="M1002.37,209.85c0.82-1.65,2.15-1.65,2.97,0l2.61,5.28c0.82,1.65,2.98,3.22,4.8,3.49l5.83,0.85
					c1.83,0.27,2.24,1.54,0.92,2.82l-4.22,4.11c-1.32,1.29-2.15,3.83-1.84,5.65l1,5.8c0.31,1.82-0.77,2.6-2.4,1.75l-5.21-2.74
					c-1.63-0.86-4.3-0.86-5.94,0l-5.21,2.74c-1.63,0.86-2.71,0.07-2.4-1.74l1-5.8c0.31-1.82-0.51-4.36-1.83-5.65l-4.22-4.11
					c-1.32-1.29-0.91-2.56,0.92-2.82l5.83-0.85c1.83-0.27,3.99-1.84,4.8-3.49L1002.37,209.85z"/>
			</g>
			<g>
				<path class="st7" d="M1048.95,209.85c0.82-1.65,2.15-1.65,2.97,0l2.6,5.28c0.82,1.65,2.98,3.22,4.8,3.49l5.83,0.85
					c1.83,0.27,2.24,1.54,0.92,2.82l-4.21,4.11c-1.32,1.29-2.15,3.83-1.83,5.65l1,5.8c0.31,1.82-0.77,2.6-2.4,1.74l-5.21-2.74
					c-1.63-0.86-4.3-0.86-5.94,0l-5.22,2.74c-1.63,0.86-2.71,0.07-2.4-1.75l1-5.8c0.31-1.82-0.51-4.36-1.83-5.65l-4.21-4.11
					c-1.32-1.29-0.91-2.56,0.92-2.82l5.83-0.85c1.83-0.27,3.99-1.84,4.8-3.49L1048.95,209.85z"/>
			</g>
			<g>
				<path class="st7" d="M1095.53,209.85c0.82-1.65,2.15-1.65,2.97,0l2.61,5.28c0.82,1.65,2.98,3.22,4.8,3.49l5.83,0.85
					c1.83,0.27,2.24,1.54,0.92,2.82l-4.21,4.11c-1.32,1.29-2.15,3.83-1.84,5.65l1,5.8c0.31,1.82-0.77,2.6-2.4,1.74l-5.21-2.74
					c-1.63-0.86-4.3-0.86-5.94,0l-5.21,2.74c-1.63,0.86-2.71,0.07-2.4-1.74l0.99-5.8c0.31-1.82-0.51-4.36-1.84-5.65l-4.21-4.11
					c-1.32-1.29-0.91-2.56,0.92-2.82l5.82-0.85c1.83-0.27,3.99-1.84,4.8-3.49L1095.53,209.85z"/>
			</g>
			<g>
				<path class="st7" d="M1142.11,209.85c0.82-1.65,2.15-1.65,2.97,0l2.6,5.28c0.82,1.65,2.98,3.22,4.8,3.49l5.83,0.85
					c1.83,0.27,2.24,1.54,0.92,2.82l-4.22,4.11c-1.32,1.29-2.15,3.83-1.83,5.65l1,5.8c0.31,1.82-0.77,2.6-2.4,1.74l-5.21-2.74
					c-1.63-0.86-4.3-0.86-5.94,0l-5.21,2.74c-1.63,0.86-2.71,0.07-2.4-1.74l1-5.8c0.31-1.82-0.51-4.36-1.84-5.65l-4.21-4.11
					c-1.32-1.29-0.91-2.56,0.92-2.82l5.83-0.85c1.83-0.27,3.99-1.84,4.8-3.49L1142.11,209.85z"/>
			</g>
			<g>
				<path class="st7" d="M1188.68,209.85c0.82-1.65,2.15-1.65,2.97,0l2.61,5.28c0.82,1.65,2.98,3.22,4.8,3.49l5.83,0.85
					c1.83,0.27,2.24,1.54,0.92,2.82l-4.22,4.11c-1.32,1.29-2.15,3.83-1.83,5.65l1,5.8c0.31,1.82-0.77,2.6-2.4,1.75l-5.21-2.74
					c-1.63-0.86-4.3-0.86-5.94,0l-5.21,2.74c-1.63,0.86-2.71,0.07-2.4-1.74l1-5.8c0.31-1.82-0.51-4.36-1.84-5.65l-4.22-4.11
					c-1.32-1.29-0.91-2.56,0.92-2.82l5.83-0.85c1.83-0.27,3.99-1.84,4.8-3.49L1188.68,209.85z"/>
			</g>
		</g>
		<g>
			<path class="st10" d="M1082.66,258.37c3.68-0.04,7.35-0.37,11.03-0.41c0.72-0.01,0.72-1.13,0-1.12
				c-3.68,0.04-7.35,0.37-11.03,0.41C1081.94,257.26,1081.94,258.38,1082.66,258.37L1082.66,258.37z"/>
		</g>
		<g>
			<path class="st10" d="M1098.81,257.96c13.14-0.3,26.29,0.29,39.43,0.08c6.56-0.11,13.06-0.72,19.61-1.04
				c6.88-0.34,13.77-0.22,20.65-0.04c6.57,0.17,13.14,0.42,19.71,0.52c4.53,0.07,9.14,0.29,13.6-0.68
				c7.3-1.58,10.41-7.49,10.89-14.51c0.05-0.72-1.07-0.72-1.12,0c-0.27,3.9-1.17,7.73-4.07,10.52c-2.64,2.54-6.62,3.22-10.12,3.5
				c-5.21,0.41-10.55,0.05-15.77-0.08c-6.2-0.16-12.39-0.4-18.59-0.51c-12.37-0.22-24.64,1.08-36.99,1.24
				c-12.41,0.16-24.83-0.39-37.24-0.11C1098.09,256.86,1098.09,257.98,1098.81,257.96L1098.81,257.96z"/>
		</g>
	</g>
	<g>
		<path class="st14" d="M708.78,405.85c0,12.86-10.42,23.28-23.28,23.28H593.5c-12.86,0-23.28-10.43-23.28-23.28v-27.09
			c0-12.86,10.42-23.28,23.28-23.28h91.99c12.86,0,23.28,10.42,23.28,23.28V405.85z"/>
		<g>
			<g>
				<path class="st7" d="M597.73,402.84c0-1.07,0.08-2.04,0.25-2.92c0.17-0.88,0.47-1.7,0.9-2.45c0.43-0.75,1.01-1.46,1.72-2.13
					s1.64-1.31,2.76-1.94c0.98-0.53,1.84-1,2.58-1.4c0.74-0.4,1.38-0.77,1.9-1.11s0.92-0.68,1.17-1.04
					c0.25-0.35,0.38-0.76,0.38-1.22c0-0.49-0.13-0.95-0.4-1.37c-0.26-0.42-0.63-0.75-1.11-0.98c-0.48-0.23-1.09-0.35-1.83-0.35
					c-0.55,0-1.07,0.07-1.56,0.21c-0.49,0.14-0.95,0.35-1.36,0.61c-0.42,0.26-0.81,0.56-1.17,0.88c-0.36,0.32-0.69,0.65-1,0.99
					l-2.98-3.48c0.31-0.33,0.75-0.7,1.31-1.09c0.56-0.39,1.23-0.77,2.01-1.11c0.78-0.35,1.65-0.63,2.6-0.86
					c0.96-0.23,1.96-0.34,3.02-0.34c1.63,0,3.02,0.26,4.16,0.78s2.03,1.24,2.64,2.16c0.61,0.92,0.92,1.99,0.92,3.2
					c0,0.88-0.16,1.64-0.47,2.3s-0.71,1.24-1.2,1.73c-0.49,0.5-1.01,0.94-1.56,1.31c-0.55,0.38-1.09,0.72-1.61,1.04
					c-0.74,0.39-1.42,0.75-2.03,1.08c-0.61,0.33-1.14,0.66-1.58,0.99c-0.44,0.33-0.84,0.66-1.18,1c-0.35,0.34-0.65,0.73-0.92,1.17
					h10.95v4.34H597.73z"/>
				<path class="st7" d="M627.81,407.4v-5.35h-10.48v-4.27l12.02-15.43h3.27v15.4h3.16v4.31h-3.16v5.35H627.81z M622.14,397.74h6.21
					v-8.15L622.14,397.74z"/>
				<path class="st7" d="M661.19,377.36l-17.8,25.48h-5.31l17.77-25.48H661.19z"/>
				<path class="st7" d="M674.75,386.72h-11.59v-4.38h19.2l-12.71,25.05h-5.42L674.75,386.72z"/>
			</g>
		</g>
		<g>
			<path class="st10" d="M650.06,425.12c15.94-3.9,33.71,3.94,48.23-5.88c0.59-0.4,0.03-1.37-0.56-0.97
				c-14.35,9.7-32.17,1.9-47.97,5.76C649.06,424.21,649.36,425.29,650.06,425.12L650.06,425.12z"/>
		</g>
		<g>
			<path class="st10" d="M703.58,383.84c0.25,2.4,0.13,4.81,0.45,7.21c0.38,2.78,0.79,5.46,0.76,8.27
				c-0.05,5.32-0.5,10.98-3.59,15.49c-0.41,0.6,0.56,1.15,0.97,0.56c2.71-3.96,3.4-8.73,3.66-13.43c0.14-2.43,0.19-4.91-0.14-7.32
				c-0.5-3.61-0.63-7.18-1-10.78C704.63,383.13,703.51,383.12,703.58,383.84L703.58,383.84z"/>
		</g>
	</g>
</g>
<g>
	<g>
		<path d="M97.23,393.36c-4.05,0-7.66-0.77-10.84-2.31c-3.18-1.54-5.83-3.64-7.95-6.31c-2.12-2.67-3.73-5.72-4.82-9.15
			c-1.09-3.44-1.64-6.98-1.64-10.65c0-4.11,0.71-8.17,2.12-12.19c1.41-4.01,3.39-7.76,5.93-11.22c2.54-3.47,5.51-6.5,8.91-9.1
			c3.4-2.6,7.08-4.66,11.03-6.17c3.95-1.51,8.04-2.26,12.28-2.26c3.98,0,7.53,0.79,10.65,2.36c3.11,1.57,5.75,3.71,7.9,6.41
			c2.15,2.7,3.76,5.77,4.82,9.2c1.06,3.44,1.59,6.99,1.59,10.65c0,4.05-0.71,8.08-2.12,12.09c-1.41,4.02-3.37,7.74-5.88,11.18
			c-2.5,3.44-5.44,6.47-8.82,9.1c-3.37,2.63-7.03,4.69-10.98,6.17C105.46,392.62,101.4,393.36,97.23,393.36z M99.83,381.6
			c3.53,0,6.76-0.85,9.68-2.55c2.92-1.7,5.46-3.93,7.61-6.7c2.15-2.76,3.81-5.78,4.96-9.06c1.16-3.28,1.73-6.55,1.73-9.83
			c0-3.08-0.55-5.97-1.64-8.67c-1.09-2.7-2.68-4.87-4.77-6.5c-2.09-1.64-4.71-2.46-7.85-2.46c-3.53,0-6.79,0.84-9.78,2.51
			c-2.99,1.67-5.52,3.89-7.61,6.65c-2.09,2.76-3.73,5.8-4.91,9.1c-1.19,3.31-1.78,6.57-1.78,9.78c0,3.15,0.54,6.07,1.64,8.77
			c1.09,2.7,2.68,4.87,4.77,6.5C93.97,380.78,96.62,381.6,99.83,381.6z"/>
		<path d="M154.17,324.47h27.65c3.4,0,6.34,0.92,8.82,2.75c2.47,1.83,4.35,4.18,5.64,7.03c1.28,2.86,1.93,5.89,1.93,9.1
			c0,3.21-0.67,6.39-2.02,9.54c-1.35,3.15-3.21,6.01-5.59,8.57c-2.38,2.57-5.09,4.62-8.14,6.17c-3.05,1.54-6.34,2.31-9.88,2.31
			h-14.84l-4.91,22.93h-13.2L154.17,324.47z M174.11,358.29c1.35,0,2.65-0.35,3.9-1.06c1.25-0.71,2.39-1.69,3.42-2.94
			c1.03-1.25,1.81-2.73,2.36-4.43c0.54-1.7,0.82-3.52,0.82-5.44c0-1.73-0.27-3.23-0.82-4.48c-0.55-1.25-1.3-2.2-2.26-2.84
			c-0.96-0.64-2.02-0.96-3.18-0.96h-13.49l-4.72,22.16H174.11z"/>
		<path d="M224.4,336.13h-20.62l2.6-11.66h54.15l-2.51,11.66H237.6l-12.14,56.75h-13.2L224.4,336.13z"/>
		<path d="M269.11,324.47h44.42l-2.5,11.66H279.8l-3.47,16.48h26.88L301,363.39h-26.98l-3.85,17.82h32.08l-2.41,11.66h-45.28
			L269.11,324.47z"/>
		<path d="M338.19,393.36c-4.05,0-7.66-0.8-10.84-2.41c-3.18-1.6-5.85-3.77-8-6.5c-2.15-2.73-3.77-5.83-4.87-9.3
			c-1.09-3.47-1.64-7.03-1.64-10.69c0-3.79,0.64-7.61,1.93-11.47c1.28-3.85,3.07-7.53,5.35-11.03c2.28-3.5,5.04-6.6,8.29-9.3
			c3.24-2.7,6.9-4.82,10.98-6.36c4.08-1.54,8.49-2.31,13.25-2.31c6.23,0,11.27,1.4,15.13,4.19c3.85,2.79,6.39,6.38,7.61,10.74
			l-11.47,6.84c-0.58-2.63-1.59-4.67-3.04-6.12c-1.45-1.44-3.08-2.46-4.91-3.03s-3.77-0.87-5.83-0.87c-3.98,0-7.45,0.85-10.41,2.55
			c-2.96,1.7-5.43,3.94-7.42,6.7c-1.99,2.76-3.48,5.77-4.48,9.01c-1,3.24-1.49,6.38-1.49,9.39c0,3.28,0.54,6.3,1.64,9.06
			c1.09,2.76,2.73,4.98,4.91,6.65c2.18,1.67,4.85,2.51,8,2.51c1.99,0,4.06-0.37,6.21-1.11c2.15-0.74,4.22-1.86,6.21-3.37
			c1.99-1.51,3.72-3.52,5.2-6.02l9.44,6.36c-2.06,3.47-4.75,6.39-8.09,8.77c-3.34,2.38-6.91,4.16-10.69,5.35
			C345.38,392.76,341.72,393.36,338.19,393.36z"/>
		<path d="M388.19,324.47h13.2l-5.88,27.65h28.52l5.88-27.65h13.3l-14.55,68.41h-13.3l6.21-29.19h-28.52l-6.21,29.19h-13.2
			L388.19,324.47z"/>
		<path d="M83.93,405.07h13.2l-5.88,27.65h28.52l5.88-27.65h13.3l-14.55,68.41h-13.3l6.21-29.19H88.79l-6.21,29.19h-13.2
			L83.93,405.07z"/>
		<path d="M153.11,405.07h44.42l-2.5,11.66H163.8l-3.47,16.47h26.88L185,443.99h-26.98l-3.85,17.82h32.08l-2.41,11.66h-45.28
			L153.11,405.07z"/>
		<path d="M208.79,405.07h13.2l-12.14,56.75h32.76l-2.41,11.66h-45.96L208.79,405.07z"/>
		<path d="M262.84,405.07h27.65c3.4,0,6.34,0.92,8.82,2.75c2.47,1.83,4.35,4.18,5.64,7.03c1.28,2.86,1.93,5.89,1.93,9.1
			c0,3.21-0.67,6.39-2.02,9.54c-1.35,3.15-3.21,6.01-5.59,8.58c-2.38,2.57-5.09,4.63-8.14,6.17c-3.05,1.54-6.34,2.31-9.88,2.31
			h-14.84l-4.91,22.93h-13.2L262.84,405.07z M282.79,438.89c1.35,0,2.65-0.35,3.9-1.06c1.25-0.71,2.39-1.69,3.42-2.94
			c1.03-1.25,1.81-2.73,2.36-4.43c0.54-1.7,0.82-3.52,0.82-5.44c0-1.73-0.27-3.23-0.82-4.48c-0.55-1.25-1.3-2.2-2.26-2.84
			c-0.96-0.64-2.02-0.96-3.18-0.96h-13.49l-4.72,22.16H282.79z"/>
		<path d="M320.75,405.07h23.8c5.91,0,10.76,1.19,14.55,3.56c3.79,2.38,6.61,5.54,8.48,9.49c1.86,3.95,2.79,8.43,2.79,13.44
			c0,6.04-1.01,11.61-3.03,16.72s-4.87,9.55-8.53,13.34c-3.66,3.79-7.93,6.71-12.81,8.77c-4.88,2.06-10.21,3.08-15.99,3.08h-23.8
			L320.75,405.07z M332.41,461.82c3.66,0,7-0.77,10.02-2.31c3.02-1.54,5.59-3.63,7.71-6.26s3.74-5.64,4.87-9.01
			c1.12-3.37,1.69-6.92,1.69-10.65c0-3.34-0.55-6.28-1.64-8.82c-1.09-2.54-2.71-4.51-4.87-5.93c-2.15-1.41-4.83-2.12-8.04-2.12
			h-10.69l-9.63,45.09H332.41z"/>
		<path d="M387.42,405.07h44.42l-2.5,11.66h-31.22l-3.47,16.47h26.88l-2.22,10.79h-26.98l-3.85,17.82h32.08l-2.41,11.66h-45.28
			L387.42,405.07z"/>
		<path d="M451.01,473.96c-4.82,0-9.48-0.79-13.97-2.36c-4.5-1.57-8.32-3.74-11.47-6.5l8.29-11.47c0.39,0.58,1.14,1.33,2.26,2.26
			c1.12,0.93,2.6,1.86,4.43,2.79c1.83,0.93,3.87,1.73,6.12,2.41c2.25,0.67,4.62,1.01,7.13,1.01c2.57,0,4.7-0.36,6.41-1.1
			c1.7-0.73,2.97-1.7,3.81-2.91c0.83-1.21,1.25-2.64,1.25-4.29c0-1.66-0.63-3.02-1.88-4.08c-1.25-1.06-2.97-1.98-5.15-2.78
			c-2.18-0.8-4.66-1.65-7.42-2.54c-3.21-1.02-5.93-2.18-8.14-3.46c-2.22-1.28-3.89-2.83-5.01-4.65c-1.12-1.82-1.69-4.01-1.69-6.57
			c0-3.96,0.79-7.5,2.36-10.6c1.57-3.1,3.72-5.74,6.46-7.92c2.73-2.17,5.83-3.82,9.3-4.94c3.47-1.12,7.1-1.68,10.89-1.68
			c3.02,0,5.84,0.35,8.48,1.06c2.63,0.71,5.01,1.64,7.13,2.79s3.98,2.41,5.59,3.76l-8.09,10.79c-0.26-0.45-0.87-1.06-1.83-1.83
			s-2.18-1.53-3.66-2.26c-1.48-0.74-3.12-1.36-4.91-1.88c-1.8-0.51-3.66-0.77-5.59-0.77c-2.5,0-4.62,0.4-6.36,1.2
			c-1.73,0.8-3.04,1.86-3.9,3.17c-0.87,1.31-1.3,2.89-1.3,4.75c0,1.41,0.5,2.57,1.49,3.5c1,0.93,2.42,1.74,4.29,2.45
			c1.86,0.7,4.11,1.47,6.74,2.3c3.47,1.02,6.47,2.19,9.01,3.5c2.54,1.31,4.51,2.97,5.93,4.98c1.41,2.01,2.12,4.59,2.12,7.72
			c0,4.28-0.8,7.96-2.41,11.03c-1.61,3.07-3.79,5.56-6.55,7.48c-2.76,1.92-5.89,3.34-9.39,4.27
			C458.25,473.49,454.67,473.96,451.01,473.96z"/>
		<path d="M500.14,405.17h13.2l-6.94,32.47l33.34-32.57h14.65l-31.22,30.45l18.31,37.96h-15.03l-13.49-29.58l-9.83,9.15l-4.34,20.43
			h-13.2L500.14,405.17z"/>
	</g>
</g>
</svg>
